<svg xmlns="http://www.w3.org/2000/svg" xmlns:xlink="http://www.w3.org/1999/xlink" version="1.0" id="Ebene_1" x="0px" y="0px" viewBox="0 0 437 94.5" style="enable-background:new 0 0 437 94.5;" xml:space="preserve" width="437"  height="94.5" >
<style type="text/css">
	.st0{clip-path:url(#SVGID_2_);fill:#09174A;}
</style>
<g>
	<defs>
		<rect id="SVGID_1_" y="0" width="437" height="94.5"/>
	</defs>
	<clipPath id="SVGID_2_">
		<use xlink:href="#SVGID_1_" style="overflow:visible;"/>
	</clipPath>
	<path class="st0" d="M60.2,44.1c-1.2,0-2,0-2.4,0c0.4-0.5,0.8-1,0.9-1.2c0.2,0,0.3,0,1,0c4.9,0,8.7,0.3,13.3,1.1l1.4-1.4   c-5.1-0.9-9.7-1.3-14.8-1.3c0.3-0.5,0.5-0.9,0.7-1.1c0.1,0,0.4,0,0.6,0c4.2,0,10.7,0.7,14.5,1.5l1.5-1.5   c-6.2-1.2-11.6-1.7-17.2-1.7c-2.7,0-5,0.1-7.1,0.4c-2.8,6.1-7.2,9.6-12.1,9.6c-2.2,0-4.7-0.8-7.8-2.6l-3.8-2.1l0.7-0.6l7.3,3.2   l0.9-0.7l-14.1-6.5l-1.5,1.2l-4.3-1.9l0,1.6c6.4,2.8,9.3,4.5,17.5,10c8.5,5.8,18.6,10,28.2,11.8l2.3-2.2h-0.6   c-6.6,0-13.5-2.8-17.7-7.3c4.4-2.7,8.6-3.9,14-3.9c2.1,0,4.5,0.1,6.4,0.4l1.4-1.4c-2.7-0.4-5.6-0.6-8.7-0.6c-2.1,0-3.9,0.1-5.5,0.2   c0.2-0.2,0.9-1,1.2-1.3c1.2-0.1,2.6-0.1,3.8-0.1c3.4,0,7.2,0.3,10.3,0.8l1.4-1.4C67.9,44.4,64.2,44.1,60.2,44.1 M80.6,47.2   c0,18.4-14.9,33.3-33.3,33.3c-18.4,0-33.3-14.9-33.3-33.3s14.9-33.3,33.3-33.3C65.6,13.9,80.6,28.9,80.6,47.2 M82.7,47.2   c0-19.6-15.8-35.4-35.4-35.4c-19.6,0-35.4,15.8-35.4,35.4c0,19.6,15.8,35.4,35.4,35.4C66.8,82.7,82.7,66.8,82.7,47.2 M129.9,70.8   h31.2v-9.5h-20.3V23.6h-10.9V70.8z M186.3,70.8h9.6v-34h-10.2v19.4c0,4.5-2.3,6.5-6,6.5c-4.1,0-6.1-2-6.1-6.5V36.8h-10.2v19.9   c0,11.2,4.5,15.1,13.2,15.1c5.3,0,8.2-2.3,9.6-4.9V70.8z M213.9,45.1h7.5v-8.3h-7.5v-1.3c0-3,1.7-4,4.9-4c1.2,0,2.6,0.1,2.6,0.1   v-8.2c0,0-1.7-0.4-4.3-0.4c-8.2,0-13.4,4.4-13.4,12.6v1.3h-5.1v8.3h5.1v25.7h10.2V45.1z M242.3,71.4c2.5,0,4.9-0.5,4.9-0.5v-8.2   c0,0-1.7,0.2-2.9,0.2c-3,0-4.9-0.9-4.9-4.6V45.1h7.8v-8.3h-7.8v-9.9h-10.2v9.9h-5.1v8.3h5.1v14.4C229.2,67.7,234.1,71.4,242.3,71.4    M272.7,70.8h10.2V50.9c0-11.2-4.5-15.1-13.2-15.1c-4.8,0-7.6,1.8-9.3,4.3V23.7h-10.3v47.2h10.2V51.4c0-4.5,2.3-6.5,6.1-6.5   c4.3,0,6.2,2,6.2,6.5V70.8z M308.9,57.6c0,3.7-3.5,6.5-8.9,6.5c-2.6,0-4.2-1.2-4.2-3.5c0-1.8,1.1-3.2,4.5-3.7l5.9-0.8   c1-0.1,2.1-0.3,2.7-0.5V57.6z M309.3,70.8h9.3V48.5c0-9.4-5.5-12.7-15.4-12.7c-10.1,0-14.9,3.8-15.3,11.1h9.9   c0.1-1.9,1.2-3.3,5.4-3.3c3.7,0,5.5,1.2,5.5,3c0,1.6-1,2.2-3.5,2.5l-6.5,0.7c-8.8,0.9-12.8,4.6-12.8,11.2c0,6.1,3.8,10.9,11.8,10.9   c5.5,0,8.7-1.8,11.5-5.3V70.8z M345.3,70.8h10.2V50.9c0-11.2-4.5-15.1-13.4-15.1c-5.5,0-8.4,2.3-9.8,4.9v-3.9h-9.6v34H333V51.4   c0-4.5,2.3-6.5,6.1-6.5c4.3,0,6.2,2,6.2,6.5V70.8z M369.7,46.3c0-1.5,1.3-2.6,4.7-2.6c3.4,0,4.5,1.2,4.9,3.2h9.9   c-0.5-7.4-5.5-11.1-14.8-11.1c-10.1,0-14.8,4.8-14.8,11.3c0,6.8,4.3,9.7,11.8,10.7l3.6,0.5c3.5,0.5,4.9,1.3,4.9,3   c0,1.9-1.6,2.8-5.6,2.8c-3.9,0-5.7-1.2-5.9-3.7h-10.1c0.2,6.8,4.3,11.5,16,11.5c10.7,0,15.8-4.3,15.8-11.4c0-7.1-4.3-9.8-13-10.9   l-3.6-0.5C370.5,48.6,369.7,47.8,369.7,46.3 M415.5,57.6c0,3.7-3.5,6.5-8.9,6.5c-2.6,0-4.2-1.2-4.2-3.5c0-1.8,1.1-3.2,4.5-3.7   l5.9-0.8c1-0.1,2.1-0.3,2.7-0.5V57.6z M425.2,70.8V48.5c0-9.4-5.5-12.7-15.4-12.7c-10.1,0-14.9,3.8-15.3,11.1h9.9   c0.1-1.9,1.2-3.3,5.4-3.3c3.7,0,5.5,1.2,5.5,3c0,1.6-1,2.2-3.5,2.5l-6.5,0.7c-8.8,0.9-12.8,4.6-12.8,11.2c0,6.1,3.8,10.9,11.8,10.9   c5.5,0,8.7-1.8,11.5-5.3v4.3H425.2z"/>
</g>
</svg>