<svg xmlns="http://www.w3.org/2000/svg" viewBox="0 0 31 31"><defs><style>.cls-1{fill:#05164d;}</style></defs><title>LHG_Crane_blue_rgb_31x31px</title><g id="Ebene_2" data-name="Ebene 2"><g id="Ebene_2-2" data-name="Ebene 2"><path class="cls-1" d="M15.5,0A15.5,15.5,0,1,0,31,15.5,15.49,15.49,0,0,0,15.5,0m0,30.07A14.57,14.57,0,1,1,30.07,15.5,14.57,14.57,0,0,1,15.5,30.07m6-17.65h-.27c-.07.12-.16.28-.3.5a35.39,35.39,0,0,1,6.46.58l-.63.61a31.12,31.12,0,0,0-5.81-.5h-.45c-.07.11-.24.33-.41.53l1.06,0a31.74,31.74,0,0,1,5.16.42l-.63.61a30.7,30.7,0,0,0-4.49-.33c-.53,0-1.13,0-1.66,0l-.53.59a23.17,23.17,0,0,1,2.42-.11,26,26,0,0,1,3.78.26l-.63.6a24.14,24.14,0,0,0-2.8-.17,11.06,11.06,0,0,0-6.14,1.69,10.92,10.92,0,0,0,7.74,3.21h.27l-1,1a33.74,33.74,0,0,1-12.34-5.16A40.24,40.24,0,0,0,2.66,12.4l0-.72,1.89.81L5.18,12l6.18,2.83-.4.32L7.79,13.75,7.48,14l1.65.92A7.13,7.13,0,0,0,12.56,16c2.14,0,4.06-1.52,5.3-4.19A24,24,0,0,1,21,11.68a40,40,0,0,1,7.54.74l-.66.64a37.58,37.58,0,0,0-6.36-.64"/></g></g></svg>