<svg xmlns="http://www.w3.org/2000/svg" viewBox="0 0 156 11.84"><defs><style>.cls-1{fill:#05164d;}</style></defs><title>LHG_Wordmark_blue_rgb_12x156px</title><g id="Ebene_2" data-name="Ebene 2"><g id="LHG_Logo" data-name="LHG Logo"><path class="cls-1" d="M135.34.24V7.17c0,2.76,1.54,4.67,5,4.67s5-1.91,5-4.67V.24h-2.63V7c0,1.74-.79,2.5-2.38,2.5S138,8.74,138,7V.24Z"/><path class="cls-1" d="M110.51,5.48h-4.69V7.77h2.06v1a4.14,4.14,0,0,1-2.56.7c-2.27,0-3.24-1.2-3.24-3.59s1-3.59,3.15-3.59c1.57,0,2.26.37,2.61,1.49h2.76C110.28,1.51,108.72,0,105.22,0c-4.12,0-5.87,2.35-5.87,5.92s1.75,5.92,6,5.92A7.73,7.73,0,0,0,110.51,10Z"/><path class="cls-1" d="M83.9,3.59C83.67,1.17,82.23,0,79.29,0,76.13,0,74.7,1.51,74.7,3.55S75.9,6.68,78,6.94l1.61.19c1.43.18,1.8.55,1.8,1.2s-.58,1.22-2.16,1.22c-1.88,0-2.22-.73-2.32-1.65H74.24c.18,2.4,1.41,3.94,5,3.94,3.18,0,4.87-1.25,4.87-3.67,0-2.25-1.3-3.31-3.68-3.6l-1.61-.19c-1.05-.13-1.41-.41-1.41-1s.42-1.14,1.88-1.14,1.8.55,1.93,1.35Z"/><polygon class="cls-1" points="70.53 7.28 65.16 0.24 62.69 0.24 62.69 11.6 65.32 11.6 65.32 4.56 70.69 11.6 73.15 11.6 73.15 0.24 70.53 0.24 70.53 7.28"/><path class="cls-1" d="M152.2.24h-5.26V11.6h2.63V7.51h2.63c2.51,0,3.8-1.49,3.8-3.63,0-2.32-1.3-3.63-3.8-3.63m-.42,5h-2.21V2.53h2.21c1.05,0,1.49.44,1.49,1.35s-.44,1.35-1.49,1.35"/><path class="cls-1" d="M128.17,0c-4.2,0-5.92,2.51-5.92,5.92s1.72,5.92,5.92,5.92,5.92-2.51,5.92-5.92S132.37,0,128.17,0m0,9.51c-2.21,0-3.2-1.3-3.2-3.59s1-3.59,3.2-3.59,3.2,1.3,3.2,3.59-1,3.59-3.2,3.59"/><path class="cls-1" d="M121.31,9.94a4.29,4.29,0,0,0-1.85-3.31,2.82,2.82,0,0,0,1.83-2.85c0-2.16-1.28-3.54-3.94-3.54H112V11.6h2.63V7.51h1.62c1.4,0,2.11.91,2.35,2.66l.19,1.43h2.71ZM117,5.22h-2.35V2.53H117c1,0,1.54.44,1.54,1.35s-.5,1.35-1.54,1.35"/><path class="cls-1" d="M91.7.24H88.49L84.37,11.6h2.87l.62-1.91h4.46L93,11.6h2.87ZM88.59,7.46,90.1,2.9l1.49,4.56Z"/><path class="cls-1" d="M57.72.24H54.51L50.38,11.6h2.87l.62-1.91h4.46L59,11.6h2.87ZM54.6,7.46,56.11,2.9,57.6,7.46Z"/><polygon class="cls-1" points="41.87 4.75 41.87 0.24 39.25 0.24 39.25 11.6 41.87 11.6 41.87 7.04 46.76 7.04 46.76 11.6 49.38 11.6 49.38 0.24 46.76 0.24 46.76 4.75 41.87 4.75"/><polygon class="cls-1" points="32.29 2.53 32.29 11.6 34.92 11.6 34.92 2.53 38.09 2.53 38.09 0.24 29.11 0.24 29.11 2.53 32.29 2.53"/><polygon class="cls-1" points="22.7 11.6 22.7 7.3 27.66 7.3 27.66 5.01 22.7 5.01 22.7 2.53 27.96 2.53 27.96 0.24 20.07 0.24 20.07 11.6 22.7 11.6"/><path class="cls-1" d="M8.45.24V7.17c0,2.76,1.54,4.67,5,4.67s5-1.91,5-4.67V.24H15.86V7c0,1.74-.8,2.5-2.38,2.5s-2.4-.76-2.4-2.5V.24Z"/><polygon class="cls-1" points="0 0.24 0 11.6 7.82 11.6 7.82 9.31 2.63 9.31 2.63 0.24 0 0.24"/></g></g></svg>