<svg xmlns:xlink="http://www.w3.org/1999/xlink" xmlns="http://www.w3.org/2000/svg" id="Brands" viewBox="0 0 85.36 12.16" width="100"  height="35" ><defs><style>.cls-1{fill:#d81e05;}</style></defs><title>LHGA_Logobar_OS</title><path class="cls-1" d="M39.86,14.18h3.77v-.89L43,13.22c-.36,0-.45-.09-.45-1.14V5.91l-2.61.3V7l.38.06c.47.09.67.23.67.91v4.07c0,1-.07,1.08-.53,1.14l-.58.07Z" transform="translate(0 -2.19)"/><path class="cls-1" d="M41.55,2.52a.87.87,0,0,0-1,.92.89.89,0,0,0,1,1,.88.88,0,0,0,1-1A.87.87,0,0,0,41.55,2.52Z" transform="translate(0 -2.19)"/><path class="cls-1" d="M10.64,13.23c-.43-.09-.54-.19-.88-1.14L6.09,2.19H5.18L1.34,12.24c-.23.64-.34.9-.82,1L0,13.29v.89H3.41v-.89L2.2,13.16l1-2.79h4l1,2.78L7,13.29v.89H11.1v-.89Zm-7-4L5.25,4.9,6.83,9.28Z" transform="translate(0 -2.19)"/><path class="cls-1" d="M33.41,14.18h4v-.86l-1-.12c-.34,0-.43-.09-.43-1.12v-4a1.65,1.65,0,0,1,1.2-.6,3.27,3.27,0,0,1,1.49.34V6a2.22,2.22,0,0,0-.77-.13,2.59,2.59,0,0,0-2,1.08L35.87,7l-.16-1H33.34V7l.42.07c.46.08.68.24.68.93v4.06c0,1.06-.09,1.1-.53,1.15l-.5.06Z" transform="translate(0 -2.19)"/><path class="cls-1" d="M32.07,12.8a2.83,2.83,0,0,1-1.23.31c-.51,0-.84-.21-.84-1.23V7.11h2V6H30V4.08H29L28.53,6H27.27v1.1h1.17v5c0,1.51.61,2.25,1.88,2.25a4,4,0,0,0,2.17-.68l.07,0-.4-.88Z" transform="translate(0 -2.19)"/><path class="cls-1" d="M19.56,13.29l-.47-.07c-.47-.08-.67-.23-.67-.94V6H15.76V7l.42.07c.46.08.67.24.67.93v4.29h0a4.08,4.08,0,0,1-2,.65c-.91,0-1.35-.54-1.35-1.66V6H10.87V7l.41.07c.45.08.67.24.67.93v3.45c0,1.31.41,2.88,2.39,2.88A3.85,3.85,0,0,0,17,13.25L17,13.2l.18,1h2.37Z" transform="translate(0 -2.19)"/><path class="cls-1" d="M51.44,13.28,51,13.22c-.46-.06-.53-.11-.53-.72V8.64c0-1.94-.73-2.8-2.55-2.8a5.52,5.52,0,0,0-2.9.83l-.06,0,.34.92.09,0a5.2,5.2,0,0,1,2.26-.48c1,0,1.27.42,1.27,1.57v.76h0c-2.73.12-4.42.61-4.42,2.66,0,1,.42,2.25,2.44,2.25A2.74,2.74,0,0,0,49,13.42l0-.06,0,.08a1.29,1.29,0,0,0,1.36.91,2.35,2.35,0,0,0,1-.2Zm-2.56-1.63a1.45,1.45,0,0,1-1.56,1.49A1.08,1.08,0,0,1,46.09,12c0-1.07.69-1.44,2.74-1.49h.05Z" transform="translate(0 -2.19)"/><path class="cls-1" d="M23.64,9.24C22.8,9,22.11,8.76,22.11,8S22.64,7,23.64,7s1.05.24,1.12.51l.25,1h1.11v-2a4.8,4.8,0,0,0-2.39-.54c-1.87,0-3.08,1-3.08,2.48s1.14,1.94,2.23,2.23l.48.12c.86.23,1.55.49,1.55,1.32,0,1-.88,1.24-1.62,1.24-1.15,0-1.3-.27-1.38-.59l-.22-1.12H20.58v2.23a5.44,5.44,0,0,0,2.63.6c1.55,0,3.2-.71,3.2-2.68,0-1.56-1.21-2-2.3-2.3Z" transform="translate(0 -2.19)"/><path class="cls-1" d="M57.44,14.18H61.1v-.89l-.63-.09c-.44,0-.52-.14-.52-1.14V8.72c0-1.92-.83-2.88-2.45-2.88a3.91,3.91,0,0,0-2.63,1.08L54.8,7l-.12-1H52.36V7l.35.06c.46.08.67.24.67.93v4c0,1-.06,1.08-.53,1.14l-.57.07v.91h3.64v-.89l-.52-.08c-.42-.06-.45-.13-.45-1.15V7.88l0,0a4,4,0,0,1,2-.65c1,0,1.41.52,1.41,1.63v3.32c0,.92,0,1-.41,1.05l-.53.08Z" transform="translate(0 -2.19)"/><path class="cls-1" d="M69.7,5.43l-.39.09c-1.25.29-2.49.6-3.71.93l-.24.07a0,0,0,0,0,0,.08l1.32.19L69,7.12h0c1.63-.78,2.71-1.08,3-.74a.54.54,0,0,1,0,.48,1.64,1.64,0,0,1-.12.22h0c-.6,1.05-2.61,3-5.42,5.23-.72.58-1.49,1.18-2.3,1.78a0,0,0,0,0,0,.09l3.33-.58h0a50.51,50.51,0,0,1,17.78-10,.1.1,0,0,0,.06-.11.08.08,0,0,0-.09-.07A90.49,90.49,0,0,0,69.7,5.43" transform="translate(0 -2.19)"/></svg>