<svg xmlns="http://www.w3.org/2000/svg" xmlns:xlink="http://www.w3.org/1999/xlink" version="1.1" id="Ebene_1" x="0px" y="0px" viewBox="0 0 89.8 30.7" style="enable-background:new 0 0 89.8 30.7;" xml:space="preserve" width="89.8"  height="30.7" >
<style type="text/css">
	.st0{fill:#DC2E33;}
</style>
<path class="st0" d="M60.7,9.6h3.1v12h-3.1V9.6z M56.4,9.6l-2,8.1L52,9.6h-3l-2.3,8.1l-2-8.1h-3l3.3,12h3.2l2.4-8.3l2.4,8.3h3.2  l3.3-12H56.4z M41.3,18.3c0-2.3-1.2-3.1-3.9-4c-1.3-0.4-2.4-0.7-2.4-1.7c0-0.9,0.9-1.1,1.5-1.1c0.6,0,1.6,0.1,1.7,1.4h2.9  c0-2.4-2-3.5-4.6-3.5c-1.6,0-2.9,0.4-3.7,1.3C32.3,11.2,32,12,32,12.9c0,2.2,1.5,3.1,3.2,3.7c1.9,0.6,3.2,0.9,3.2,2  c0,0.7-0.6,1.4-1.6,1.4c-1.4,0-1.9-0.8-1.9-1.6h-3c0,2.8,2.3,3.8,4.9,3.8C40,22,41.3,20.2,41.3,18.3 M74.8,18.3c0-2.7-1.9-3.4-4.3-4  c-1.1-0.3-2.1-0.6-2.1-1.6c0-0.9,0.9-1.1,1.5-1.1c0.6,0,1.6,0.1,1.7,1.4h3c-0.1-2.4-2-3.5-4.6-3.5c-1.6,0-2.9,0.4-3.7,1.3  c-0.6,0.6-0.9,1.4-0.9,2.3c0,2.2,1.5,3.1,3.2,3.7c1.9,0.6,3.2,0.9,3.2,2c0,0.7-0.5,1.4-1.6,1.4c-1.4,0-1.9-0.8-1.9-1.6h-3  c0,2.8,2.3,3.8,4.9,3.8C73.4,22,74.8,20.2,74.8,18.3 M85.5,18.3c0-2.7-1.9-3.4-4.3-4c-1.1-0.3-2.1-0.6-2.1-1.6  c0-0.9,0.9-1.1,1.5-1.1c0.5,0,1.6,0.1,1.7,1.4h3c0-2.4-2-3.5-4.6-3.5c-1.6,0-2.9,0.4-3.7,1.3c-0.6,0.6-0.9,1.4-0.9,2.3  c0,2.2,1.5,3.1,3.2,3.7c1.9,0.6,3.2,0.9,3.2,2c0,0.7-0.6,1.4-1.6,1.4c-1.4,0-1.9-0.8-1.9-1.6h-3c0,2.8,2.3,3.8,4.9,3.8  C84.1,22,85.5,20.2,85.5,18.3"/>
<path class="st0" d="M25.1,25.1H4.5L19.6,6.3h10.1L25.1,25.1 M21.9,13.9v-4h-3.5v4h-4v3.5h4v4h3.5v-4h4v-3.5H21.9z"/>
</svg>